<?xml version="1.0" encoding="UTF-8" standalone="no"?>
<!DOCTYPE svg PUBLIC "-//W3C//DTD SVG 1.1//EN" "http://www.w3.org/Graphics/SVG/1.1/DTD/svg11.dtd">
<svg width="100%" height="100%" viewBox="0 0 11023 2431" version="1.1" xmlns="http://www.w3.org/2000/svg" xmlns:xlink="http://www.w3.org/1999/xlink" xml:space="preserve" xmlns:serif="http://www.serif.com/" style="fill-rule:evenodd;clip-rule:evenodd;stroke-linejoin:round;stroke-miterlimit:2;">
    <g transform="matrix(4.16667,0,0,4.16667,-3154.17,-7369.89)">
        <g transform="matrix(1,0,0,1,3029.47,1793.87)">
            <path d="M0,0C0.972,-0.004 1.943,-0.008 2.944,-0.012C4.024,-0.011 5.105,-0.01 6.218,-0.009C7.355,-0.012 8.493,-0.015 9.665,-0.018C12.838,-0.025 16.01,-0.028 19.183,-0.029C22.6,-0.03 26.017,-0.038 29.434,-0.045C36.916,-0.058 44.398,-0.064 51.88,-0.069C56.555,-0.072 61.229,-0.076 65.904,-0.08C78.852,-0.092 91.801,-0.103 104.749,-0.106C105.993,-0.106 105.993,-0.106 107.263,-0.107C108.094,-0.107 108.926,-0.107 109.783,-0.107C111.468,-0.108 113.153,-0.108 114.838,-0.109C116.092,-0.109 116.092,-0.109 117.371,-0.109C130.885,-0.113 144.4,-0.131 157.915,-0.154C171.797,-0.178 185.679,-0.19 199.561,-0.192C207.353,-0.192 215.144,-0.198 222.935,-0.216C229.577,-0.232 236.219,-0.237 242.861,-0.229C246.245,-0.225 249.629,-0.227 253.013,-0.24C284.149,-0.348 310.032,6.171 334.53,26.131C335.696,27.05 335.696,27.05 336.886,27.987C352.901,41.281 363.922,61.279 369.53,81.131C369.776,81.943 370.021,82.755 370.274,83.592C373.113,94.108 372.954,104.393 372.919,115.213C372.923,117.32 372.928,119.428 372.934,121.535C372.948,127.225 372.943,132.915 372.933,138.605C372.926,144.58 372.933,150.556 372.938,156.531C372.943,166.563 372.936,176.596 372.921,186.628C372.905,198.2 372.91,209.771 372.927,221.343C372.941,231.306 372.942,241.269 372.935,251.232C372.93,257.17 372.929,263.108 372.939,269.046C372.948,274.632 372.942,280.217 372.925,285.803C372.921,287.843 372.922,289.884 372.928,291.924C372.961,303.093 372.534,313.3 369.53,324.131C369.293,325 369.057,325.868 368.812,326.763C360.817,355.065 343.138,377.683 317.567,392.25C310.284,396.254 302.777,399.602 294.968,402.444C294.345,402.674 293.722,402.905 293.08,403.142C277.085,408.659 261.391,408.551 244.654,408.488C241.948,408.487 239.243,408.491 236.538,408.494C229.983,408.5 223.429,408.489 216.874,408.474C209.223,408.456 201.571,408.455 193.92,408.454C180.257,408.452 166.594,408.437 152.931,408.413C139.707,408.389 126.484,408.375 113.261,408.372C112.039,408.371 112.039,408.371 110.793,408.371C109.152,408.371 107.511,408.37 105.87,408.37C105.06,408.369 104.25,408.369 103.416,408.369C102.608,408.369 101.801,408.369 100.968,408.368C88.319,408.365 75.669,408.353 63.019,408.341C58.453,408.336 53.888,408.333 49.322,408.33C42.076,408.326 34.83,408.318 27.585,408.303C24.279,408.297 20.974,408.292 17.669,408.291C4.586,408.285 -8.425,408.221 -21.47,407.131L-21.47,406.131C-23.155,406.13 -23.155,406.13 -24.874,406.129C-63.362,406.105 -101.849,406.08 -140.336,406.056C-141.112,406.055 -141.887,406.055 -142.687,406.054C-225.966,406 -309.245,405.945 -392.524,405.888C-394.378,405.886 -396.233,405.885 -398.087,405.884C-437.031,405.857 -475.975,405.83 -514.92,405.802C-534.489,405.789 -554.058,405.775 -573.628,405.761C-576.579,405.759 -579.531,405.757 -582.482,405.755C-627.814,405.723 -673.146,405.692 -718.478,405.664C-719.45,405.663 -720.421,405.662 -721.421,405.662C-737.075,405.652 -752.729,405.642 -768.382,405.632C-813.59,405.604 -858.798,405.575 -904.007,405.543C-904.941,405.542 -905.875,405.542 -906.837,405.541C-927.364,405.526 -947.891,405.512 -968.418,405.497C-976.683,405.491 -984.949,405.484 -993.214,405.478C-994.118,405.478 -995.023,405.477 -995.955,405.476C-1024.87,405.455 -1053.78,405.437 -1082.7,405.421C-1111.94,405.404 -1141.18,405.384 -1170.42,405.361C-1174.51,405.357 -1178.59,405.354 -1182.67,405.351C-1183.87,405.35 -1183.87,405.35 -1185.1,405.349C-1196.78,405.34 -1208.47,405.333 -1220.15,405.328C-1237.35,405.32 -1254.55,405.309 -1271.76,405.29C-1272.76,405.289 -1272.76,405.289 -1273.79,405.287C-1326.69,405.228 -1379.58,404.805 -1432.47,404.131L-1432.47,403.131C-1426.2,402.801 -1419.93,402.471 -1413.47,402.131C-1414.46,401.471 -1415.45,400.811 -1416.47,400.131C-1415.34,400.131 -1414.21,400.13 -1413.05,400.129C-1374.47,400.105 -1335.88,400.08 -1297.29,400.056C-1296.51,400.055 -1295.73,400.055 -1294.93,400.054C-1211.66,400.001 -1128.38,399.946 -1045.11,399.888C-1043.26,399.886 -1041.41,399.885 -1039.56,399.884C-1000.75,399.857 -961.938,399.83 -923.125,399.802C-903.629,399.789 -884.133,399.775 -864.637,399.761C-861.696,399.759 -858.755,399.757 -855.814,399.755C-810.513,399.723 -765.212,399.692 -719.911,399.664C-718.937,399.663 -717.962,399.662 -716.959,399.662C-701.247,399.652 -685.536,399.642 -669.825,399.632C-624.586,399.604 -579.347,399.575 -534.108,399.543C-532.714,399.542 -532.714,399.542 -531.291,399.541C-510.883,399.526 -490.474,399.512 -470.066,399.497C-461.855,399.491 -453.644,399.484 -445.434,399.478C-444.535,399.478 -443.636,399.477 -442.71,399.476C-413.728,399.455 -384.746,399.437 -355.764,399.421C-326.583,399.404 -297.402,399.385 -268.221,399.361C-264.193,399.357 -260.165,399.354 -256.138,399.351C-255.348,399.35 -254.558,399.35 -253.745,399.349C-241.216,399.339 -228.686,399.332 -216.157,399.327C-203.853,399.322 -191.549,399.313 -179.244,399.3C-172.656,399.294 -166.067,399.289 -159.478,399.288C-153.495,399.288 -147.512,399.283 -141.529,399.274C-139.368,399.271 -137.207,399.271 -135.045,399.272C-132.129,399.273 -129.212,399.268 -126.296,399.262C-125.449,399.264 -124.603,399.266 -123.731,399.268C-120.128,399.254 -116.943,399.039 -113.47,398.131C-111.559,398.018 -109.645,397.955 -107.731,397.926C-106.569,397.906 -105.407,397.886 -104.209,397.866C-102.943,397.849 -101.677,397.832 -100.372,397.815C-99.023,397.794 -97.675,397.773 -96.326,397.752C-93.47,397.708 -90.615,397.667 -87.759,397.629C-84.927,397.591 -82.096,397.549 -79.265,397.504C-54.662,397.11 -30.08,397.131 -5.47,397.131L-5.47,9.131C-9.925,9.626 -9.925,9.626 -14.47,10.131C-16.276,10.211 -18.084,10.259 -19.892,10.261C-20.866,10.264 -21.84,10.267 -22.843,10.27C-23.887,10.268 -24.93,10.266 -26.005,10.264C-27.15,10.265 -28.295,10.266 -29.475,10.267C-31.93,10.268 -34.385,10.266 -36.84,10.262C-40.331,10.257 -43.821,10.262 -47.311,10.268C-60.419,10.271 -73.522,10.145 -86.628,9.904C-126.372,9.181 -166.104,8.984 -205.854,9C-214.955,9.003 -224.056,9 -233.156,8.998C-250.963,8.992 -268.77,8.993 -286.577,8.996C-302.137,8.998 -317.697,8.999 -333.257,8.998C-334.817,8.997 -334.817,8.997 -336.409,8.997C-340.633,8.997 -344.857,8.997 -349.081,8.996C-388.5,8.993 -427.919,8.996 -467.338,9.002C-502.284,9.006 -537.23,9.006 -572.177,9.001C-611.593,8.996 -651.009,8.994 -690.425,8.997C-694.629,8.997 -698.832,8.997 -703.035,8.998C-704.587,8.998 -704.587,8.998 -706.17,8.998C-721.74,8.999 -737.31,8.998 -752.88,8.995C-770.566,8.992 -788.253,8.993 -805.939,8.998C-815.817,9.001 -825.694,9.002 -835.572,8.998C-842.185,8.996 -848.797,8.997 -855.41,9.001C-859.166,9.004 -862.922,9.005 -866.678,9.001C-880.762,8.988 -894.81,9.099 -908.88,9.766C-919.592,10.264 -930.297,10.303 -941.018,10.328C-943.287,10.336 -945.556,10.345 -947.825,10.355C-953.993,10.38 -960.16,10.399 -966.328,10.417C-972.326,10.435 -978.325,10.458 -984.323,10.48C-997.374,10.529 -1010.43,10.573 -1023.48,10.615C-1035,10.652 -1046.51,10.69 -1058.03,10.731C-1058.8,10.733 -1059.58,10.736 -1060.37,10.739C-1063.5,10.75 -1066.63,10.761 -1069.77,10.772C-1099.2,10.875 -1128.63,10.974 -1158.06,11.07C-1183.77,11.153 -1209.48,11.241 -1235.19,11.332C-1241.7,11.355 -1248.21,11.378 -1254.73,11.401C-1255.93,11.405 -1255.93,11.405 -1257.16,11.41C-1412.06,11.956 -1412.06,11.956 -1672.47,12.131L-1672.47,2.131C-1618.41,2.108 -1564.35,2.104 -1510.3,2.223C-1509.21,2.226 -1508.13,2.228 -1507.01,2.23C-1495.66,2.256 -1484.31,2.282 -1472.95,2.308C-1445.96,2.372 -1418.96,2.427 -1391.97,2.483C-1389.83,2.488 -1387.69,2.492 -1385.54,2.497C-1307.21,2.659 -1228.88,2.802 -609.692,3.304C-608.486,3.304 -607.281,3.305 -606.04,3.305C-595.101,3.306 -584.162,3.308 -573.224,3.31C-538.232,3.315 -503.241,3.325 -468.25,3.338C-425.41,3.354 -382.571,3.363 -339.732,3.361C-335.316,3.361 -330.899,3.361 -326.483,3.361C-325.398,3.361 -324.314,3.361 -323.196,3.361C-308.27,3.36 -293.343,3.364 -278.417,3.372C-165.375,3.46 -165.375,3.46 -52.343,2.18C-50.473,2.147 -50.473,2.147 -48.565,2.114C-41.627,1.992 -34.688,1.864 -27.75,1.722C-25.704,1.68 -23.658,1.64 -21.612,1.601C-18.872,1.547 -16.131,1.487 -13.391,1.425C-12.19,1.403 -12.19,1.403 -10.965,1.38C-6.834,1.277 -4.049,0.006 0,0Z" style="fill-rule:nonzero;"/>
        </g>
        <g transform="matrix(1,0,0,1,1169.99,1768.92)">
            <path d="M0,0C50.517,-1.787 100.676,13.123 142.008,42.083C143.649,43.185 143.649,43.185 145.324,44.309C154.733,50.708 162.875,58.15 171.008,66.083C172.032,67.067 173.057,68.051 174.082,69.036C180.219,75.027 185.768,81.295 191.008,88.083C191.634,88.886 191.634,88.886 192.272,89.705C211.327,114.31 226.328,142.848 234.008,173.083C234.344,174.307 234.681,175.532 235.027,176.793C237.896,187.421 239.64,198.167 241.008,209.083C241.151,210.19 241.151,210.19 241.298,211.319C246.29,254.417 237.416,297.121 219.008,336.083C218.593,337.002 218.178,337.921 217.75,338.868C212.153,350.782 204.634,362.055 196.684,372.528C196.169,373.206 195.654,373.884 195.124,374.583C194.154,375.842 193.171,377.091 192.171,378.326C190.132,380.953 188.99,382.463 189.086,385.852C190.396,389.021 192.529,390.711 195.008,393.083C196.821,395.314 198.564,397.593 200.313,399.875C203.928,404.583 207.747,408.937 212.008,413.083C212.668,413.743 213.328,414.403 214.008,415.083C215.686,414.811 217.351,414.464 219.008,414.083C229.405,413.325 235.839,413.769 243.84,420.446C250.403,426.194 256.309,432.48 262.008,439.083C263.216,440.458 264.424,441.833 265.633,443.208C267.285,445.1 268.933,446.996 270.574,448.899C275.741,454.862 281.109,460.633 286.47,466.42C289.302,469.482 292.119,472.559 294.935,475.637C297.189,478.101 299.449,480.559 301.719,483.008C331.677,515.356 331.677,515.356 331.627,532.739C331.14,545.161 323.543,554.628 315.008,563.083C314.162,563.969 313.317,564.856 312.445,565.77C311.641,566.533 310.837,567.296 310.008,568.083C309.45,568.624 308.891,569.165 308.316,569.723C298.007,579.303 287.322,583.517 273.305,583.266C261.374,582.602 252.287,576.164 244.32,567.77C243.613,567.049 242.906,566.328 242.178,565.584C238.187,561.483 234.362,557.261 230.618,552.933C228.299,550.268 225.906,547.678 223.508,545.083C219.86,541.122 216.265,537.125 212.734,533.059C207.385,526.935 201.887,520.943 196.383,514.958C192.78,511.039 189.223,507.087 185.742,503.059C184.48,501.62 183.195,500.201 181.898,498.793C164.645,480.052 164.645,480.052 164.711,468.719C165.098,465.278 166.283,462.823 168.035,459.872C169.074,457.961 169.564,456.204 170.008,454.083C169.464,453.887 168.92,453.691 168.359,453.489C164.999,451.479 162.828,448.577 160.383,445.583C155.819,440.111 151.104,435.015 145.969,430.071C144.008,428.083 144.008,428.083 142.008,425.083C138.485,425.683 136.598,427.032 133.898,429.329C129.161,433.124 124.271,435.659 118.758,438.145C117.836,438.571 116.914,438.998 115.965,439.437C114.14,440.28 112.312,441.118 110.482,441.952C108.383,442.911 106.294,443.887 104.211,444.879C92.6,450.373 80.929,454.663 68.445,457.708C67.232,458.007 66.018,458.307 64.768,458.616C55.226,460.916 45.712,462.574 35.982,463.806C33.38,464.17 30.828,464.728 28.258,465.27C2.45,469.682 -26.245,465.12 -51.071,457.655C-52.844,457.127 -54.627,456.629 -56.41,456.133C-60.842,454.833 -65.196,453.356 -69.555,451.833C-70.426,451.528 -71.298,451.224 -72.196,450.91C-79.612,448.286 -86.824,445.322 -93.992,442.083C-93.992,441.423 -103.363,437.412 -106.68,435.333C-107.319,434.938 -107.958,434.544 -108.617,434.138C-110.755,432.805 -112.875,431.448 -114.992,430.083C-115.754,429.591 -116.515,429.1 -117.299,428.594C-128.055,421.588 -137.986,414.053 -147.479,405.414C-148.904,404.16 -150.404,402.995 -151.906,401.836C-152.595,401.258 -153.283,400.679 -153.992,400.083C-153.992,399.423 -161.063,393.174 -163.492,390.52C-164.013,389.952 -164.535,389.384 -165.072,388.799C-171.403,381.727 -176.73,373.965 -181.992,366.083C-182.637,365.12 -182.637,365.12 -183.294,364.138C-191.368,352.01 -197.991,339.382 -204.046,326.149C-204.897,324.29 -205.76,322.436 -206.625,320.583C-214.556,302.976 -219.376,283.953 -221.563,264.809C-221.826,262.522 -222.131,260.239 -222.506,257.968C-223.084,253.352 -223.173,248.835 -223.195,244.188C-223.201,243.242 -223.207,242.296 -223.213,241.321C-223.222,239.319 -223.229,237.318 -223.232,235.317C-223.242,232.317 -223.273,229.318 -223.305,226.319C-223.372,214.264 -222.523,202.874 -219.992,191.083C-219.757,189.975 -219.522,188.868 -219.28,187.728C-218.626,184.832 -217.92,181.957 -217.18,179.083C-216.92,178.068 -216.661,177.054 -216.394,176.009C-207.26,140.976 -190.784,107.153 -166.113,80.387C-164.173,78.279 -162.295,76.132 -160.43,73.958C-154.082,66.709 -147.23,60.363 -139.66,54.4C-138.489,53.475 -137.323,52.544 -136.16,51.609C-100.76,23.179 -58.961,6.484 -13.992,1.083C-12.936,0.951 -11.881,0.82 -10.793,0.684C-7.197,0.313 -3.611,0.15 0,0ZM-33.992,60.083C-35.01,60.323 -36.027,60.564 -37.075,60.812C-39.361,61.387 -41.613,62.018 -43.867,62.708C-44.671,62.953 -45.475,63.198 -46.304,63.451C-69.18,70.76 -88.732,82.736 -106.992,98.083C-107.737,98.696 -108.482,99.31 -109.25,99.942C-119.071,108.243 -128.003,117.268 -134.992,128.083C-136.095,129.584 -137.199,131.084 -138.305,132.583C-141.583,137.263 -144.398,142.159 -147.18,147.145C-147.596,147.889 -148.012,148.633 -148.441,149.399C-151.251,154.512 -153.693,159.722 -155.992,165.083C-156.412,166.021 -156.833,166.959 -157.266,167.926C-160.351,175.367 -162.346,182.952 -164.242,190.77C-164.63,192.356 -164.63,192.356 -165.025,193.973C-175.34,237.899 -166.196,288.583 -142.589,326.765C-138.737,332.806 -134.561,338.565 -129.992,344.083C-129.587,344.576 -129.183,345.07 -128.766,345.578C-105.539,373.838 -76.025,393.983 -40.434,403.141C-37.767,403.871 -35.293,404.665 -32.742,405.708C-24.27,408.814 -15.449,409.434 -6.492,409.708C-5.421,409.742 -4.35,409.776 -3.247,409.812C-0.982,409.878 1.284,409.939 3.549,409.995C5.846,410.053 8.143,410.122 10.439,410.202C26.42,410.739 40.63,409.508 56.008,405.083C57.271,404.737 58.534,404.392 59.836,404.036C77.569,398.909 95.87,390.683 111.008,380.083C111.606,379.673 112.203,379.263 112.819,378.841C114.785,377.494 116.742,376.135 118.695,374.77C119.321,374.337 119.947,373.904 120.591,373.458C122.101,372.384 123.56,371.239 125.008,370.083C125.008,369.423 133.556,361.623 134.129,361.032C134.749,360.388 135.369,359.745 136.008,359.083C136.808,358.285 137.609,357.487 138.434,356.665C146.704,348.369 153.575,339.84 160.008,330.083C160.614,329.224 161.22,328.365 161.844,327.481C172.899,311.323 181.144,288.959 183.68,269.586C184.092,266.438 184.798,263.397 185.543,260.313C186.769,254.428 187.186,248.67 187.246,242.684C187.254,241.891 187.262,241.098 187.271,240.28C187.284,238.605 187.295,236.929 187.303,235.253C187.314,233.574 187.335,231.895 187.365,230.216C187.577,218.196 186.172,207.662 183.008,196.083C182.516,193.877 182.034,191.669 181.57,189.458C179.265,179.485 176.343,169.859 171.008,161.083C170.402,159.567 169.82,158.043 169.254,156.512C167.074,150.987 164.277,146.048 161.133,141.02C160.566,140.112 160,139.203 159.416,138.268C153.658,129.237 147.104,121.085 140.008,113.083C139.424,112.415 138.839,111.747 138.237,111.059C123.142,93.892 105.878,82.74 85.383,72.833C84.358,72.337 83.334,71.842 82.278,71.331C58.056,59.838 35.112,55.51 8.508,55.458C7.541,55.451 6.575,55.444 5.579,55.437C-8.057,55.382 -20.745,56.862 -33.992,60.083Z" style="fill:rgb(52,140,203);fill-rule:nonzero;"/>
        </g>
        <g transform="matrix(1,0,0,1,1736,1880)">
            <path d="M0,0L67,0L68,148L101,149L101,191L67,191L67,241L17,241L17,191L-97,191C-97,159.783 -96.951,153.084 -82.375,130.5L-78.707,124.777L-76.842,121.875C-75.057,119.089 -73.282,116.298 -71.512,113.504C-64.958,103.163 -58.327,92.877 -51.623,82.632C-45.541,73.326 -39.573,63.949 -33.622,54.559C-29.647,48.288 -25.662,42.023 -21.641,35.781L-19.945,33.141C-18.834,31.409 -17.719,29.68 -16.602,27.953C-10.737,18.795 -5.47,9.448 0,0ZM16,50C15.009,51.276 14.034,52.567 13.134,53.908L11.938,55.75C7.112,63.073 7.112,63.073 -2.188,78.5C-6.901,86.329 -11.656,94.108 -16.678,101.745C-22.264,110.194 -27.748,118.695 -33.049,127.326L-35.375,131.125C-36.486,132.922 -37.597,134.719 -38.696,136.524L-39.711,138.195C-42.117,142.131 -43.07,144.35 -44,149L18,149L18,50L16,50Z"/>
        </g>
        <g transform="matrix(1,0,0,1,1913,1893)">
            <path d="M0,0C0.215,0.573 0.43,1.146 0.652,1.736C14.548,38.752 28.45,75.765 43.472,112.342C46.819,120.504 49.963,128.718 53,137C53.778,139.079 54.56,141.156 55.342,143.233C56.101,145.248 56.856,147.264 57.609,149.281C58.49,151.637 59.375,153.991 60.266,156.344C60.632,157.323 60.998,158.303 61.375,159.313C61.692,160.154 62.009,160.996 62.336,161.863C63,164 63,164 63,167C65.25,166.162 65.25,166.162 65.859,163.621C66.153,162.571 66.447,161.52 66.75,160.438C68.298,155.189 70.008,150.058 71.938,144.938C72.4,143.709 72.863,142.481 73.34,141.215C75.01,136.911 76.801,132.659 78.584,128.402C80.996,122.607 83.352,116.789 85.712,110.972C86.564,108.871 87.418,106.769 88.271,104.668C91.201,97.453 94.117,90.233 97,83C99.169,77.57 101.344,72.143 103.523,66.717C105.184,62.583 106.842,58.448 108.5,54.313C108.85,53.44 109.2,52.567 109.561,51.668C113.311,42.316 117.04,32.958 120.648,23.551C121.066,22.464 121.066,22.464 121.492,21.354C122.793,17.962 124.086,14.568 125.369,11.169C125.822,9.982 126.275,8.794 126.742,7.57C127.133,6.537 127.523,5.503 127.925,4.438C129,2 129,2 131,0C133.929,-0.188 136.762,-0.256 139.691,-0.23C140.982,-0.23 140.982,-0.23 142.299,-0.229C144.119,-0.226 145.939,-0.218 147.759,-0.206C150.555,-0.188 153.35,-0.185 156.146,-0.186C157.911,-0.181 159.676,-0.175 161.441,-0.168C162.704,-0.166 162.704,-0.166 163.992,-0.165C169.884,-0.116 169.884,-0.116 171,1C171.165,2.393 171.267,3.794 171.341,5.196C171.392,6.095 171.442,6.994 171.494,7.92C171.545,8.907 171.596,9.893 171.648,10.91C171.766,13.019 171.884,15.127 172.002,17.236C172.093,18.905 172.093,18.905 172.186,20.609C173.031,36.038 173.893,51.442 175.5,66.813C177.219,83.426 178.048,100.087 178.91,116.763C179.499,128.02 180.224,139.24 181.246,150.466C182.132,160.247 182.801,170.039 183.433,179.839C183.628,182.857 183.829,185.875 184.031,188.893C184.159,190.852 184.287,192.811 184.414,194.77C184.473,195.652 184.533,196.534 184.594,197.444C184.967,203.332 185,209.074 185,215L151,215C150.727,209.395 150.727,209.395 150.449,203.676C150.197,198.555 149.943,193.434 149.688,188.313C149.654,187.644 149.621,186.975 149.586,186.286C148.692,168.387 147.693,150.502 146.438,132.625C145.376,117.424 144.502,102.223 143.813,87C143.748,85.632 143.748,85.632 143.683,84.236C143.076,71.15 142.903,58.099 143,45L141,45C140.629,46.918 140.629,46.918 140.25,48.875C139.52,52.137 138.627,55.151 137.348,58.238C135.482,62.808 133.658,67.393 131.855,71.988C120.319,101.338 108.667,130.638 96.27,159.637C94.101,164.728 92.04,169.856 90,175C88.218,179.462 86.423,183.919 84.625,188.375C84.169,189.517 83.712,190.659 83.242,191.836C80.171,199.427 76.746,206.718 73,214L51,214C46.504,205.007 46.504,205.007 45.254,201.703C44.974,200.971 44.693,200.239 44.404,199.484C44.127,198.747 43.849,198.01 43.563,197.25C41.109,190.783 38.523,184.385 35.844,178.008C14.777,127.858 14.777,127.858 6.191,105.609C4.667,101.665 3.075,97.757 1.438,93.859C-0.692,88.783 -2.679,83.672 -4.563,78.5C-4.861,77.686 -5.159,76.872 -5.466,76.034C-7.452,70.581 -9.361,65.108 -11.156,59.59C-11.724,57.848 -12.308,56.111 -12.906,54.379C-13.185,53.573 -13.463,52.768 -13.75,51.938C-13.992,51.245 -14.235,50.553 -14.484,49.84C-15,48 -15,48 -15,45L-17,45C-16.93,45.642 -16.86,46.284 -16.788,46.945C-15.758,57.978 -15.814,69.015 -15.815,80.087C-15.813,83.503 -15.794,86.918 -15.775,90.334C-15.743,102.822 -16.17,115.18 -17.148,127.629C-17.954,137.938 -18.539,148.251 -19.07,158.578C-19.114,159.421 -19.157,160.264 -19.202,161.133C-19.469,166.294 -19.731,171.455 -19.992,176.617C-20.258,181.868 -20.528,187.119 -20.798,192.37C-21.202,200.247 -21.6,208.123 -22,216L-56,216C-56,203.621 -56,203.621 -55.756,199.495C-55.703,198.562 -55.649,197.63 -55.594,196.669C-55.505,195.213 -55.505,195.213 -55.414,193.727C-55.321,192.16 -55.321,192.16 -55.227,190.562C-55.095,188.361 -54.963,186.161 -54.828,183.961C-54.628,180.669 -54.435,177.375 -54.242,174.082C-53.587,163.093 -52.77,152.146 -51.667,141.192C-50.957,133.978 -50.65,126.811 -50.5,119.563C-50.264,111.071 -49.907,102.642 -49.063,94.188C-46.757,71.023 -45.779,47.726 -44.697,24.477C-44.326,16.622 -43.899,8.817 -43,1C-39.021,0.827 -35.042,0.663 -31.063,0.5C-29.965,0.452 -28.867,0.405 -27.736,0.355C-18.487,-0.018 -9.255,-0.05 0,0Z" style="fill-rule:nonzero;"/>
        </g>
        <g transform="matrix(1,0,0,1,1450,1871)">
            <path d="M0,0L52,0C52.33,45.21 52.66,90.42 53,137C57.29,132.05 61.58,127.1 66,122C68.607,119.163 71.214,116.346 73.875,113.563C78.134,109.088 82.298,104.56 86.348,99.895C92.13,93.262 98.113,86.81 104.387,80.641C109.665,75.321 109.665,75.321 114.021,69.279C116.224,65.985 117.869,64.248 121.819,63.383C125.396,63.189 128.912,63.214 132.492,63.316C134.444,63.331 134.444,63.331 136.435,63.346C139.878,63.373 143.32,63.442 146.762,63.519C150.281,63.591 153.801,63.623 157.32,63.658C164.214,63.733 171.107,63.852 178,64C177.165,68.3 175.206,70.016 172,73C170.82,74.172 170.82,74.172 169.616,75.368C168.807,76.171 167.998,76.974 167.164,77.801C165.318,79.638 163.471,81.475 161.625,83.313C160.705,84.225 159.784,85.137 158.836,86.076C151.897,92.991 131.109,116.021 128.52,118.465C127.427,119.522 126.335,120.58 125.244,121.639C123.525,123.295 121.802,124.947 120.069,126.589C118.393,128.18 116.737,129.789 115.082,131.402C114.558,131.889 114.034,132.376 113.495,132.877C111.858,134.423 111.858,134.423 110,137C110.121,141.709 112.748,145.212 115.25,149.063C115.694,149.759 116.138,150.455 116.595,151.172C118.055,153.454 119.526,155.728 121,158C121.485,158.752 121.971,159.505 122.471,160.28C126.292,166.201 130.143,172.102 134,178C134.67,179.025 135.34,180.05 136.031,181.106C138.919,185.525 141.808,189.943 144.699,194.36C147.945,199.321 151.187,204.283 154.41,209.258C154.937,210.071 155.464,210.885 156.007,211.723C157.035,213.31 158.062,214.897 159.089,216.484C162.139,221.183 165.233,225.851 168.359,230.5C168.73,231.051 169.1,231.603 169.482,232.171C171.306,234.888 173.135,237.601 174.973,240.309C175.628,241.282 176.282,242.255 176.957,243.258C177.545,244.126 178.132,244.993 178.738,245.887C180,248 180,248 180,250C172.69,250.232 165.38,250.41 158.067,250.518C154.67,250.57 151.276,250.641 147.881,250.754C143.972,250.885 140.064,250.932 136.152,250.977C134.942,251.028 133.731,251.08 132.484,251.133C124.217,251.138 124.217,251.138 120.749,247.894C118.939,245.339 117.44,242.777 116,240C115.367,239.034 114.734,238.069 114.082,237.074C113.592,236.287 113.102,235.499 112.598,234.688C111.74,233.312 111.74,233.312 110.864,231.908C109.972,230.469 109.972,230.469 109.063,229C108.423,227.973 107.783,226.945 107.124,225.886C101.624,217.04 96.183,208.159 90.737,199.28C85.295,190.429 79.707,181.682 74,173C70.094,174.302 64.271,181.11 61.022,184.072C56.404,188.283 52.689,191.02 51.323,196.93C50.304,205.511 50.568,214.128 50.75,222.75C50.762,225.393 50.769,228.036 50.77,230.68C50.774,237.124 50.889,243.553 51,250L0,250L0,0Z" style="fill-rule:nonzero;"/>
        </g>
        <g transform="matrix(1,0,0,1,2658.69,1938.69)">
            <path d="M0,0L2.897,0.01C11.004,0.134 18.464,1.195 26.313,3.313L28.77,3.934C46.011,8.935 60.856,21.533 69.512,37.148C82.542,61.857 84.793,88.943 77.094,115.73C70.883,135.62 58.168,151.943 39.922,162.223C20.629,172.23 -1.002,175.95 -22.363,170.41C-42.621,163.721 -58.995,152.191 -69.688,133.313C-72.035,128.407 -73.931,123.453 -75.688,118.313L-76.945,114.891C-79.847,105.598 -80.082,96.361 -80.125,86.688L-80.156,82.754C-79.946,59.42 -71.603,37.859 -55.445,20.969C-45.543,11.488 -34.002,5.469 -20.688,2.313L-18.448,1.78C-12.254,0.41 -6.335,-0.038 0,0ZM26.332,33.871C7.719,22.514 -13.605,23.615 -29.793,38.211C-41.334,50.221 -46.07,65.75 -46,82.125L-45.938,85.813C-45.916,90.998 -46.302,96.375 -45.236,101.472L-44.688,103.313C-41.523,114.735 -38.205,124.713 -29.938,133.563C-19.274,143.577 -9.138,145.56 5.113,145.48C14.922,144.965 24.197,140.462 30.793,133.16L32.313,131.313C42.809,118.681 46.452,105.039 46.731,88.776L46.75,85.063C46.847,73.702 45.611,63.276 40.561,52.974L39.563,51.063C36.088,44.321 32.566,38.408 26.332,33.871Z"/>
        </g>
        <g transform="matrix(1,0,0,1,3222,1898)">
            <path d="M0,0C1.47,0.578 1.47,0.578 2.969,1.168C22.798,9.584 37.238,25.023 45.715,44.691C53.246,64.081 52.211,81.538 44.465,100.75C41.947,106.335 38.985,111.655 36,117C35.324,118.328 34.652,119.66 34,121C34.581,121.255 35.163,121.51 35.762,121.773C41.148,124.725 45.238,130.061 49.188,134.688C52.444,138.483 55.946,141.986 59.5,145.5C63.599,149.553 67.541,153.64 71.258,158.051C73.408,160.457 75.731,162.644 78.063,164.875C83.453,170.241 88.707,175.758 89.25,183.625C86.895,189.983 83.685,194.533 77.5,197.563C73.559,199.023 71.019,199.625 67,198C64.115,195.881 61.561,193.496 59,191C58.399,190.426 57.799,189.853 57.18,189.262C53.495,185.668 50.108,181.867 46.75,177.969C45.062,176.07 43.312,174.28 41.5,172.5C38.511,169.557 35.753,166.476 33.016,163.301C30.555,160.492 28.03,157.746 25.5,155C18.666,147.559 18.666,147.559 15.813,144.375C15.262,143.764 14.712,143.153 14.145,142.523C13,141 13,141 13,139C2.088,142.156 2.088,142.156 -8.57,146.059C-26.734,151.044 -47.514,146.164 -63.625,137.188C-69.731,133.421 -74.962,129.092 -80,124C-80.623,123.411 -81.245,122.822 -81.887,122.215C-95.365,108.434 -101.257,86.643 -101.249,68.014C-101.168,61.236 -100.498,55.347 -98,49C-97.66,48.044 -97.319,47.087 -96.969,46.102C-89.771,27.183 -75.236,10.937 -57,2C-38.914,-5.318 -18.474,-7.462 0,0Z" style="fill:rgb(252,251,251);fill-rule:nonzero;"/>
        </g>
        <g transform="matrix(1,0,0,1,3025,1795)">
            <path d="M0,0L0,406L276,406L276,407C240.984,407.023 205.968,407.041 170.953,407.051C166.812,407.052 162.672,407.054 158.532,407.055C157.295,407.055 157.295,407.055 156.034,407.056C142.714,407.06 129.394,407.068 116.074,407.077C102.392,407.087 88.71,407.092 75.028,407.094C66.595,407.095 58.162,407.1 49.729,407.108C43.935,407.113 38.141,407.115 32.347,407.114C29.011,407.113 25.676,407.114 22.34,407.119C9.189,407.137 -3.888,407.108 -17,406C-17,405.67 -97.379,404.949 -135.866,404.924C-136.642,404.924 -137.418,404.923 -138.217,404.923C-221.496,404.869 -304.775,404.814 -388.054,404.756C-389.909,404.755 -391.763,404.754 -393.617,404.752C-432.562,404.725 -471.506,404.698 -510.45,404.671C-530.019,404.657 -549.589,404.643 -569.158,404.63C-572.109,404.628 -575.061,404.626 -578.013,404.624C-623.345,404.592 -668.677,404.561 -714.009,404.532C-714.98,404.532 -715.951,404.531 -716.952,404.53C-732.605,404.52 -748.259,404.511 -763.913,404.501C-809.121,404.473 -854.329,404.444 -899.537,404.412C-900.471,404.411 -901.405,404.41 -902.367,404.41C-922.894,404.395 -943.421,404.38 -963.948,404.365C-972.214,404.359 -980.479,404.353 -988.744,404.347C-989.649,404.346 -990.553,404.346 -991.485,404.345C-1020.4,404.324 -1049.31,404.306 -1078.23,404.289C-1107.47,404.273 -1136.71,404.253 -1165.95,404.229C-1170.04,404.226 -1174.12,404.223 -1178.2,404.22C-1179.4,404.219 -1179.4,404.219 -1180.63,404.218C-1192.31,404.208 -1204,404.202 -1215.68,404.197C-1232.88,404.189 -1250.09,404.177 -1267.29,404.158C-1268.3,404.157 -1268.3,404.157 -1269.32,404.156C-1322.22,404.097 -1375.11,403.674 -1428,403L-1428,402C-1421.73,401.67 -1415.46,401.34 -1409,401C-1409.99,400.34 -1410.98,399.68 -1412,399C-1410.87,398.999 -1409.75,398.999 -1408.59,398.998C-1370,398.973 -1331.41,398.949 -1292.82,398.924C-1292.04,398.924 -1291.27,398.923 -1290.46,398.923C-1207.19,398.869 -1123.92,398.814 -1040.64,398.756C-1038.79,398.755 -1036.94,398.754 -1035.09,398.752C-996.281,398.726 -957.468,398.698 -918.656,398.671C-899.16,398.657 -879.663,398.643 -860.167,398.63C-857.226,398.628 -854.285,398.626 -851.344,398.624C-806.043,398.592 -760.743,398.561 -715.442,398.532C-714.467,398.532 -713.493,398.531 -712.489,398.53C-696.778,398.52 -681.066,398.511 -665.355,398.501C-620.116,398.473 -574.878,398.444 -529.639,398.412C-528.244,398.411 -528.244,398.411 -526.821,398.41C-506.413,398.395 -486.005,398.38 -465.597,398.365C-457.386,398.359 -449.175,398.353 -440.964,398.347C-440.065,398.346 -439.167,398.346 -438.241,398.345C-409.259,398.324 -380.277,398.306 -351.295,398.289C-322.113,398.273 -292.932,398.253 -263.751,398.229C-259.723,398.226 -255.696,398.223 -251.668,398.22C-250.878,398.219 -250.089,398.218 -249.275,398.218C-236.746,398.208 -224.217,398.201 -211.688,398.196C-199.383,398.19 -187.079,398.182 -174.775,398.169C-168.186,398.162 -161.597,398.157 -155.009,398.157C-149.026,398.156 -143.043,398.151 -137.06,398.142C-134.898,398.14 -132.737,398.139 -130.576,398.14C-127.659,398.142 -124.743,398.137 -121.826,398.131C-120.98,398.132 -120.133,398.134 -119.261,398.136C-115.658,398.123 -112.473,397.907 -109,397C-107.089,396.886 -105.175,396.824 -103.261,396.795C-102.099,396.775 -100.937,396.755 -99.739,396.734C-98.473,396.718 -97.207,396.701 -95.902,396.684C-94.554,396.663 -93.205,396.642 -91.857,396.621C-89.001,396.577 -86.145,396.536 -83.289,396.497C-80.458,396.459 -77.627,396.418 -74.795,396.372C-50.192,395.979 -25.611,396 -1,396L-1,8C-5.455,8.495 -5.455,8.495 -10,9C-11.806,9.079 -13.614,9.128 -15.422,9.129C-16.396,9.133 -17.37,9.136 -18.374,9.139C-19.417,9.137 -20.46,9.135 -21.535,9.133C-22.68,9.134 -23.825,9.135 -25.005,9.136C-27.46,9.136 -29.916,9.135 -32.371,9.13C-35.861,9.125 -39.351,9.13 -42.842,9.137C-55.95,9.139 -69.052,9.013 -82.158,8.773C-121.903,8.049 -161.634,7.853 -201.385,7.868C-210.485,7.872 -219.586,7.869 -228.687,7.866C-246.494,7.861 -264.3,7.861 -282.107,7.864C-297.667,7.867 -313.227,7.867 -328.787,7.866C-330.348,7.866 -330.348,7.866 -331.939,7.866C-336.164,7.866 -340.388,7.865 -344.612,7.865C-384.031,7.862 -423.449,7.865 -462.868,7.87C-497.814,7.875 -532.761,7.874 -567.707,7.87C-607.123,7.864 -646.54,7.862 -685.956,7.865C-690.159,7.866 -694.362,7.866 -698.565,7.866C-700.117,7.866 -700.117,7.866 -701.701,7.866C-717.271,7.868 -732.841,7.866 -748.411,7.864C-766.097,7.861 -783.783,7.862 -801.469,7.867C-811.347,7.87 -821.225,7.87 -831.103,7.866C-837.715,7.864 -844.328,7.866 -850.94,7.87C-854.696,7.872 -858.452,7.873 -862.208,7.869C-876.293,7.857 -890.34,7.967 -904.41,8.635C-915.122,9.132 -925.827,9.171 -936.549,9.196C-938.818,9.205 -941.087,9.214 -943.356,9.224C-949.523,9.248 -955.691,9.267 -961.858,9.285C-967.857,9.304 -973.855,9.326 -979.853,9.349C-992.904,9.398 -1005.96,9.442 -1019.01,9.483C-1030.53,9.52 -1042.05,9.559 -1053.56,9.599C-1054.34,9.602 -1055.11,9.605 -1055.9,9.607C-1059.03,9.618 -1062.17,9.629 -1065.3,9.64C-1094.73,9.744 -1124.16,9.842 -1153.59,9.938C-1179.3,10.022 -1205.01,10.109 -1230.72,10.2C-1237.23,10.223 -1243.74,10.246 -1250.26,10.269C-1251.46,10.274 -1251.46,10.274 -1252.69,10.278C-1407.59,10.825 -1407.59,10.825 -1668,11L-1668,1C-1613.94,0.977 -1559.88,0.973 -1505.83,1.092C-1504.74,1.094 -1503.66,1.097 -1502.54,1.099C-1491.19,1.124 -1479.84,1.15 -1468.48,1.177C-1441.49,1.24 -1414.5,1.296 -1387.5,1.352C-1385.36,1.356 -1383.22,1.361 -1381.07,1.365C-1302.74,1.528 -1224.41,1.671 -605.222,2.173C-604.017,2.173 -602.812,2.173 -601.57,2.173C-590.631,2.175 -579.693,2.177 -568.754,2.178C-533.763,2.183 -498.771,2.193 -463.78,2.207C-420.941,2.223 -378.101,2.232 -335.262,2.23C-330.846,2.229 -326.43,2.229 -322.014,2.229C-320.929,2.229 -319.844,2.229 -318.726,2.229C-303.8,2.229 -288.874,2.233 -273.947,2.24C-249.263,2.253 -224.579,2.257 -199.894,2.243C-198.51,2.242 -198.51,2.242 -197.098,2.241C-132.822,2.204 -68.58,1.55 -4.319,0.074C-1,0 -1,0 0,0Z" style="fill-rule:nonzero;"/>
        </g>
        <g transform="matrix(1,0,0,1,757,1880)">
            <path d="M0,0L51,0C51.33,66 51.66,132 52,200C112.39,200.495 112.39,200.495 174,201L174,244L0,244L0,0Z" style="fill-rule:nonzero;"/>
        </g>
        <g transform="matrix(1,0,0,1,2254.44,1953.75)">
            <path d="M0,0C9.259,7.983 15.06,18.022 19.563,29.25L20.523,31.613C26.29,47.228 24.563,63.942 24.563,80.25L-90.438,80.25C-87.405,95.411 -81.845,111.191 -68.438,120.25C-50.578,130.296 -34.207,131.263 -14.646,125.914C-7.584,123.792 -0.742,120.97 5.797,117.566C8.563,116.25 8.563,116.25 11.563,116.25C12.378,118.978 13.19,121.708 14,124.438L14.697,126.768C15.825,130.575 16.879,134.332 17.563,138.25C-4.385,153.677 -31.098,160.918 -57.777,156.441C-77.836,152.486 -96.245,142.764 -108.238,125.797C-122.973,102.789 -127.653,75.6 -122,48.75C-118.586,34.679 -111.579,21.407 -102.438,10.25L-100.566,7.766C-75.976,-21.292 -29.071,-21.555 0,0ZM-47.688,11.059C-57.462,11.739 -64.399,13.856 -71.727,20.586L-73.438,22.25C-77.807,26.34 -80.95,30.835 -83.776,36.083L-84.875,38.188C-86.724,41.609 -88.34,44.685 -88.584,48.619L-88.531,51.006C-88.507,52.421 -88.478,53.836 -88.438,55.25C-78.975,55.271 -69.512,55.288 -60.049,55.299C-55.23,55.304 -50.41,55.308 -45.591,55.319C-40.865,55.33 -36.138,55.34 -31.412,55.343L-26.035,55.348C-23.443,55.355 -20.852,55.363 -18.26,55.364L-15.895,55.364C-13.4,55.376 -10.932,55.345 -8.438,55.25C-7.438,54.25 -7.438,54.25 -7.305,52.105L-7.313,49.438C-7.28,38.505 -12.508,27.22 -20.18,19.496C-28.091,12.947 -37.58,10.651 -47.688,11.059Z"/>
        </g>
        <g transform="matrix(1,0,0,1,1210,1864)">
            <path d="M0,0C2.456,0.646 4.902,1.246 7.375,1.813C15.08,3.66 22.738,5.789 30,9C30.33,9.66 30.66,10.32 31,11C29.804,10.732 28.608,10.464 27.375,10.188C25.583,9.791 23.792,9.395 22,9C20.867,8.747 19.734,8.495 18.566,8.234C16.77,7.84 16.77,7.84 14.938,7.438C13.812,7.189 12.687,6.94 11.527,6.684C-7.746,2.949 -29.903,3.362 -49,8C-49.887,8.215 -50.773,8.43 -51.687,8.652C-70.687,13.463 -88.8,21.436 -104,34C-104.526,34.429 -105.052,34.857 -105.593,35.299C-112.365,40.843 -118.841,46.658 -125.063,52.813C-125.586,53.327 -126.11,53.842 -126.65,54.372C-130.229,57.98 -133.131,61.805 -136,66C-135.028,65.954 -134.056,65.907 -133.055,65.859C-124.351,65.582 -116.133,66.23 -107.563,67.813C-106.665,67.978 -105.767,68.143 -104.841,68.313C-95.342,70.172 -86.815,72.585 -78.5,77.625C-77.767,78.063 -77.035,78.501 -76.28,78.952C-70.212,82.677 -65.027,86.954 -60,92C-59.072,92.839 -59.072,92.839 -58.125,93.695C-40.233,110.23 -33.166,136.597 -31.823,160.101C-31.396,171.699 -31.313,182.891 -35,194C-35.267,194.877 -35.534,195.753 -35.809,196.656C-40.047,209.464 -46.545,221.515 -55,232C-55.567,232.754 -56.134,233.508 -56.719,234.285C-65.902,245.704 -79.426,253.069 -93,258C-93.998,258.38 -94.995,258.761 -96.023,259.152C-99.324,260.092 -101.589,260.455 -105,260C-107.311,258.595 -109.197,257.273 -111.25,255.563C-111.811,255.112 -112.373,254.662 -112.951,254.198C-123.421,245.718 -133.49,236.476 -142,226C-142,225.34 -143.32,224 -144,224L-144,222C-143.402,222.026 -142.803,222.052 -142.187,222.079C-130.131,222.537 -119.833,222.92 -109,217C-108.175,216.577 -107.35,216.154 -106.5,215.719C-95.717,209.453 -90.674,198.45 -87,187C-86.633,185.975 -86.265,184.95 -85.887,183.895C-81.442,164.374 -84.855,143.035 -95,126C-100.028,118.024 -107.55,114.589 -116,111C-116.891,110.613 -117.781,110.227 -118.699,109.828C-123.704,108.573 -128.61,108.631 -133.75,108.625C-134.784,108.601 -135.818,108.576 -136.883,108.551C-145.198,108.519 -151.92,110.189 -158.813,114.938C-162.306,119.828 -164.013,125.366 -166,131C-166.365,131.777 -166.73,132.555 -167.105,133.355C-168.386,137.143 -168.465,140.839 -168.625,144.813C-168.664,145.601 -168.702,146.389 -168.742,147.201C-168.836,149.134 -168.919,151.067 -169,153C-170.32,152.67 -171.64,152.34 -173,152C-174.253,145.113 -174.257,138.235 -174.313,131.25C-174.342,130.038 -174.371,128.827 -174.4,127.578C-174.45,120.548 -173.703,115.066 -171.014,108.569C-169.407,104.496 -168.685,100.278 -167.813,96C-165.419,85.179 -161.232,75.728 -156,66C-155.473,65.015 -154.946,64.03 -154.402,63.016C-153.023,60.602 -151.561,58.3 -150,56C-149.393,55.098 -148.786,54.195 -148.16,53.266C-126.382,22.605 -94.232,5.109 -58,-3C-41.311,-5.516 -15.39,-7.857 0,0Z" style="fill-rule:nonzero;"/>
        </g>
        <g transform="matrix(1,0,0,1,2394.44,1939.62)">
            <path d="M0,0C1.726,-0.017 1.726,-0.017 3.486,-0.035C17.854,0.014 32.113,4.256 42.754,14.344C54.744,27.81 57.908,44.956 57.79,62.456C57.79,63.608 57.79,64.761 57.79,65.948C57.789,69.72 57.774,73.491 57.758,77.262C57.754,79.892 57.751,82.521 57.749,85.151C57.743,91.342 57.727,97.532 57.707,103.722C57.684,110.777 57.673,117.831 57.663,124.886C57.642,139.382 57.606,153.879 57.563,168.375L24.563,168.375C24.533,163.311 24.533,163.311 24.502,158.145C24.435,146.977 24.358,135.809 24.275,124.641C24.225,117.872 24.179,111.102 24.141,104.333C24.104,97.797 24.057,91.261 24.004,84.725C23.986,82.235 23.971,79.744 23.959,77.254C23.942,73.759 23.913,70.264 23.881,66.77C23.879,65.745 23.877,64.721 23.875,63.666C23.743,52.3 21.703,44.118 13.93,35.582C7.017,29.071 -1.245,27.86 -10.438,27.938C-11.694,27.908 -11.694,27.908 -12.977,27.877C-24.09,27.886 -32.415,33.462 -40.16,41.066C-47.313,48.951 -50.187,56.056 -50.097,66.678C-50.113,68.319 -50.113,68.319 -50.129,69.992C-50.157,73.58 -50.151,77.166 -50.145,80.754C-50.158,83.252 -50.173,85.75 -50.19,88.249C-50.226,94.134 -50.24,100.02 -50.243,105.906C-50.248,113.271 -50.288,120.637 -50.326,128.002C-50.391,141.126 -50.421,154.25 -50.438,167.375L-83.438,167.375L-83.438,2.375L-53.438,2.375C-53.108,9.305 -52.778,16.235 -52.438,23.375C-47.705,19.322 -47.705,19.322 -42.988,15.25C-30.051,4.413 -16.72,-0.168 0,0Z" style="fill-rule:nonzero;"/>
        </g>
        <g transform="matrix(1,0,0,1,1300.61,1931.55)">
            <path d="M0,0C2.925,2.992 4.582,6.173 6.266,9.945C6.602,10.677 6.937,11.409 7.283,12.163C11.766,22.179 15.836,32.756 18.391,43.445C16.391,43.488 11.731,42.785 11.391,42.445C7.733,42.134 4.06,42.167 0.391,42.133C-0.626,42.104 -1.644,42.075 -2.691,42.045C-12.302,41.965 -18.884,44.827 -26.609,50.445C-27.414,50.982 -28.218,51.518 -29.047,52.07C-38.083,60.446 -45.086,73.966 -45.771,86.361C-46.743,110.842 -46.743,110.842 -38.609,133.445C-38.116,134.256 -37.622,135.067 -37.113,135.902C-30.448,146.17 -23.037,150.804 -11.453,154.207C-8.609,155.445 -8.609,155.445 -7.703,157.59C-7.672,158.202 -7.641,158.814 -7.609,159.445C-8.371,160.081 -8.371,160.081 -9.148,160.73C-13.313,164.279 -27.711,178.788 -29.859,180.383C-30.446,180.826 -31.032,181.268 -31.637,181.725C-32.781,182.587 -33.93,183.443 -35.084,184.292C-36.735,185.509 -36.735,185.509 -38.656,187.262C-41.477,188.971 -43.362,188.833 -46.609,188.445C-55.232,184.736 -62.655,178.644 -69.609,172.445C-70.477,171.673 -71.344,170.901 -72.238,170.105C-82.171,160.749 -88.601,149.044 -93.609,136.445C-94.342,134.703 -94.342,134.703 -95.09,132.926C-99.115,122.068 -99.089,111.001 -99.109,99.57C-99.114,98.767 -99.118,97.964 -99.123,97.137C-99.145,87.481 -98.56,78.727 -95.609,69.445C-95.256,68.234 -94.903,67.022 -94.539,65.773C-89.951,52.382 -83.152,39.963 -73.609,29.445C-72.8,28.543 -71.99,27.641 -71.156,26.711C-57.407,12.158 -20.377,-12.141 0,0Z" style="fill-rule:nonzero;"/>
        </g>
        <g transform="matrix(1,0,0,1,2940.46,1937.81)">
            <path d="M0,0C2.006,-0.002 4.011,-0.021 6.017,-0.039C22.183,-0.063 36.96,3.102 51.54,10.185C50.932,15.481 49.712,20.257 48.04,25.31C46.647,29.568 45.298,33.759 44.54,38.185C41.577,37.074 38.889,35.83 36.103,34.31C28.109,30.26 18.506,27.549 9.54,27.185C8.323,27.134 7.106,27.082 5.853,27.029C-6.217,26.68 -14.548,27.717 -23.647,36.15C-27.416,40.382 -28.029,44.026 -27.897,49.588C-27.006,54.883 -23.762,58.235 -19.772,61.615C-12.404,66.728 -3.277,68.948 5.165,71.685C24.452,78.091 44.736,86.451 54.603,105.205C59.565,116.156 58.687,129.143 54.798,140.252C52.889,144.705 50.591,148.43 47.54,152.185C47.023,152.849 46.506,153.513 45.974,154.197C35.535,166.084 18.893,171.769 3.54,173.185C-12.831,174.113 -27.25,172.835 -42.96,168.31C-43.833,168.067 -44.705,167.823 -45.604,167.572C-51.728,165.821 -57.591,163.655 -63.46,161.185C-62.826,154.446 -61.237,148.19 -59.397,141.685C-59.116,140.672 -58.834,139.659 -58.544,138.615C-57.854,136.137 -57.16,133.661 -56.46,131.185C-52.487,132.049 -49.676,133.791 -46.21,135.935C-38.678,140.434 -30.896,142.926 -22.46,145.185C-21.831,145.365 -21.201,145.544 -20.553,145.729C-16.362,146.642 -12.044,146.413 -7.772,146.435C-6.817,146.456 -5.861,146.477 -4.876,146.498C4.556,146.549 13.174,144.319 20.54,138.185C24.347,134.129 25.882,130.228 26.228,124.685C25.933,119.94 25.02,116.698 21.88,113.092C13.375,106.163 2.392,102.491 -7.96,99.291C-26.924,93.301 -46.659,85.528 -56.397,66.998C-60.865,57.866 -60.955,44.647 -58.397,34.873C-53.692,21.85 -44.567,12.779 -32.44,6.502C-27.268,4.217 -21.915,2.644 -16.46,1.185C-15.876,1.008 -15.292,0.831 -14.69,0.648C-9.891,-0.348 -4.882,-0.001 0,0Z" style="fill-rule:nonzero;"/>
        </g>
        <g transform="matrix(1,0,0,1,2523,1896)">
            <path d="M0,0L0,45L41,45L41,72L0,72C0.063,84.492 0.138,96.984 0.236,109.475C0.28,115.276 0.32,121.077 0.346,126.878C0.373,132.48 0.413,138.082 0.463,143.684C0.48,145.818 0.491,147.951 0.498,150.084C0.507,153.081 0.535,156.077 0.568,159.074C0.566,159.949 0.565,160.823 0.563,161.724C0.683,169.661 2.218,177.218 8,183C11.849,186.652 14.917,187.301 20.063,187.438C26.114,187.27 31.684,186.128 37.516,184.559C38.335,184.374 39.155,184.19 40,184C41.54,185.54 41.436,187.2 41.754,189.332C41.886,190.213 42.018,191.094 42.154,192.002C42.289,192.929 42.424,193.857 42.563,194.813C42.701,195.728 42.84,196.644 42.982,197.588C43.556,201.466 44,205.066 44,209C34.829,214.205 25.291,215.494 14.875,215.375C13.855,215.387 12.836,215.398 11.785,215.41C0.379,215.366 -9.899,211.888 -18.234,203.844C-28.219,192.283 -31.283,177.585 -31.319,162.685C-31.329,161.708 -31.339,160.731 -31.349,159.725C-31.38,156.533 -31.397,153.341 -31.414,150.148C-31.433,147.921 -31.452,145.693 -31.473,143.465C-31.524,137.629 -31.564,131.793 -31.601,125.957C-31.641,119.991 -31.692,114.025 -31.742,108.059C-31.839,96.372 -31.922,84.686 -32,73C-38.93,72.67 -45.86,72.34 -53,72C-53.958,63.261 -54.081,54.782 -54,46L-31,46L-31,7C-27.056,5.685 -23.468,4.58 -19.453,3.711C-18.444,3.492 -17.434,3.273 -16.395,3.047C-15.357,2.825 -14.319,2.603 -13.25,2.375C-11.67,2.031 -11.67,2.031 -10.059,1.68C-2.27,0 -2.27,0 0,0Z" style="fill-rule:nonzero;"/>
        </g>
        <g transform="matrix(1,0,0,1,3221.69,1925.19)">
            <path d="M0,0C1.793,1.239 3.565,2.51 5.313,3.813C6.107,4.399 6.901,4.986 7.719,5.59C18.56,14.371 24.933,27.238 26.723,40.957C27.342,53.839 22.662,66.378 15.313,76.813C14.735,77.699 14.158,78.586 13.563,79.5C3.449,89.894 -10.279,94.959 -24.5,96.125C-38.539,95.644 -50.319,89.82 -60.398,80.301C-71.908,67.79 -75.409,54.347 -74.819,37.826C-74.026,25.708 -66.453,13.835 -57.688,5.813C-50.937,0.631 -43.812,-2.738 -35.688,-5.188C-35.057,-5.381 -34.427,-5.574 -33.777,-5.773C-22.239,-8.06 -9.993,-6.079 0,0Z" style="fill-rule:nonzero;"/>
        </g>
        <g transform="matrix(1,0,0,1,2851.38,1938.75)">
            <path d="M0,0C1.781,0.008 1.781,0.008 3.598,0.016C12.315,0.095 12.315,0.095 14.625,1.25C14.062,11.26 13.442,21.257 12.625,31.25C5.975,30.355 5.975,30.355 3.902,29.734C-5.445,27.746 -16.213,28.077 -24.375,33.25C-25.427,33.848 -26.479,34.446 -27.563,35.063C-35.566,41.287 -42.363,51.232 -44.375,61.25C-44.472,62.762 -44.521,64.278 -44.533,65.793C-44.548,67.152 -44.548,67.152 -44.563,68.538C-44.569,69.524 -44.574,70.51 -44.58,71.526C-44.59,72.571 -44.6,73.615 -44.61,74.691C-44.642,78.143 -44.667,81.595 -44.691,85.047C-44.712,87.44 -44.733,89.833 -44.754,92.227C-44.81,98.526 -44.859,104.826 -44.907,111.126C-44.957,117.554 -45.013,123.982 -45.068,130.41C-45.176,143.023 -45.277,155.637 -45.375,168.25L-78.375,168.25L-78.375,3.25L-48.375,3.25C-48.045,11.17 -47.715,19.09 -47.375,27.25C-44.242,25.161 -43.709,24.303 -42.125,21.063C-37.29,12.137 -30.492,7.463 -21.375,3.25C-20.216,2.703 -19.057,2.157 -17.863,1.594C-12.078,-0.522 -6.077,-0.108 0,0Z" style="fill-rule:nonzero;"/>
        </g>
        <g transform="matrix(1,0,0,1,2930.39,1796.95)">
            <path d="M0,0C0.666,-0.002 1.332,-0.003 2.018,-0.005C2.682,-0.007 3.347,-0.008 4.031,-0.01C12.394,-0.031 20.757,-0.045 29.12,-0.058C36.287,-0.07 43.455,-0.091 50.622,-0.118C54.944,-0.132 59.266,-0.138 63.587,-0.142C65.579,-0.145 67.57,-0.152 69.561,-0.163C72.254,-0.177 74.947,-0.179 77.64,-0.177C78.822,-0.188 78.822,-0.188 80.028,-0.198C85.38,-0.177 85.38,-0.177 87.608,2.051C86.563,2.067 86.563,2.067 85.497,2.083C78.739,2.183 71.98,2.286 65.222,2.391C61.753,2.445 58.283,2.498 54.814,2.549C36.039,2.819 36.039,2.819 17.269,3.297C-2.593,3.918 -22.43,4.198 -42.302,4.18C-46.36,4.177 -50.419,4.181 -54.478,4.183C-61.564,4.187 -68.649,4.187 -75.735,4.184C-86.306,4.18 -96.878,4.182 -107.45,4.185C-126.469,4.19 -145.487,4.19 -164.506,4.187C-181.35,4.185 -198.194,4.184 -215.037,4.186C-216.167,4.186 -217.296,4.186 -218.46,4.186C-223.054,4.186 -227.647,4.187 -232.241,4.187C-279.491,4.192 -326.741,4.188 -373.992,4.182C-379.016,4.181 -384.04,4.181 -389.064,4.18C-390.309,4.18 -391.555,4.18 -392.838,4.179C-419.176,4.176 -445.513,4.175 -471.851,4.174C-593.301,4.17 -714.75,4.155 -1187.08,3.551C-1188.37,3.548 -1189.66,3.545 -1190.99,3.542C-1253.79,3.398 -1316.59,3.238 -1379.39,3.051C-1379.72,2.391 -1380.05,1.731 -1380.39,1.051C-1339.41,1.021 -1298.43,0.99 -1257.44,0.96C-1256.64,0.959 -1255.84,0.958 -1255.01,0.958C-1168.86,0.893 -1082.71,0.829 -996.562,0.765C-994.643,0.764 -992.725,0.763 -990.806,0.761C-950.511,0.731 -910.217,0.701 -869.922,0.671C-849.674,0.656 -829.425,0.641 -809.177,0.626C-806.123,0.624 -803.069,0.622 -800.015,0.62C-753.118,0.585 -706.221,0.55 -659.325,0.515C-658.32,0.514 -657.316,0.513 -656.281,0.513C-640.091,0.501 -623.901,0.488 -607.711,0.476C-560.946,0.441 -514.181,0.406 -467.416,0.372C-466.449,0.371 -465.483,0.37 -464.487,0.37C-443.245,0.354 -422.004,0.338 -400.762,0.323C-392.208,0.316 -383.655,0.31 -375.101,0.304C-374.165,0.303 -373.229,0.302 -372.265,0.301C-342.358,0.279 -312.451,0.257 -282.544,0.234C-252.291,0.212 -222.038,0.189 -191.786,0.167C-187.557,0.164 -183.329,0.161 -179.1,0.158C-178.272,0.157 -177.443,0.157 -176.59,0.156C-165.285,0.148 -153.98,0.139 -142.675,0.131C-138.055,0.127 -133.436,0.124 -128.817,0.12C-125.047,0.117 -121.277,0.114 -117.507,0.111C-102.448,0.1 -87.389,0.089 -72.33,0.083C-66.902,0.081 -61.475,0.078 -56.047,0.076C-54.049,0.075 -52.051,0.074 -50.053,0.073C-33.369,0.066 -16.684,0.042 0,0Z" style="fill-rule:nonzero;"/>
        </g>
        <g transform="matrix(1,0,0,1,1210,1864)">
            <path d="M0,0C2.456,0.646 4.902,1.246 7.375,1.813C15.08,3.66 22.738,5.789 30,9C30.33,9.66 30.66,10.32 31,11C29.804,10.732 28.608,10.464 27.375,10.188C25.583,9.791 23.792,9.395 22,9C20.867,8.747 19.734,8.495 18.566,8.234C16.77,7.84 16.77,7.84 14.938,7.438C13.812,7.189 12.687,6.94 11.527,6.684C-7.746,2.949 -29.903,3.362 -49,8C-49.887,8.215 -50.773,8.43 -51.687,8.652C-70.687,13.463 -88.8,21.436 -104,34C-104.526,34.429 -105.052,34.857 -105.593,35.299C-112.365,40.843 -118.841,46.658 -125.063,52.813C-125.586,53.327 -126.11,53.842 -126.65,54.372C-130.229,57.98 -145.005,76.27 -147.058,80.212C-148.346,82.657 -149.871,84.933 -151.375,87.25C-154.127,91.979 -156.105,96.879 -158,102C-158.3,102.701 -158.601,103.403 -158.91,104.125C-160.646,108.258 -168.465,140.841 -168.625,144.813C-168.664,145.601 -168.702,146.389 -168.742,147.201C-168.836,149.134 -168.919,151.067 -169,153C-170.32,152.67 -171.64,152.34 -173,152C-174.253,145.113 -174.257,138.235 -174.313,131.25C-174.342,130.038 -174.371,128.827 -174.4,127.578C-174.45,120.548 -173.703,115.066 -171.014,108.569C-169.407,104.496 -168.685,100.278 -167.813,96C-165.419,85.179 -161.232,75.728 -156,66C-155.473,65.015 -154.946,64.03 -154.402,63.016C-153.023,60.602 -151.561,58.3 -150,56C-149.393,55.098 -148.786,54.195 -148.16,53.266C-126.382,22.605 -94.232,5.109 -58,-3C-41.311,-5.516 -15.39,-7.857 0,0Z" style="fill:rgb(52,140,203);fill-rule:nonzero;"/>
        </g>
    </g>
</svg>
